<svg xmlns="http://www.w3.org/2000/svg" xmlns:xlink="http://www.w3.org/1999/xlink" width="224.88" viewBox="0 0 224.88 75" height="75" version="1.0"><defs><g id="a"><path d="M 6.21875 0 L 1.796875 0 L 1.796875 -16.625 L 11.625 -16.625 L 11.625 -13.03125 L 6.21875 -13.03125 L 6.21875 -9.84375 L 11.203125 -9.84375 L 11.203125 -6.25 L 6.21875 -6.25 Z M 6.21875 0"/></g><g id="b"><path d="M 9.3125 -13.109375 C 9.695312 -13.109375 10.066406 -13.082031 10.421875 -13.03125 L 10.671875 -12.984375 L 10.265625 -8.78125 C 9.898438 -8.875 9.398438 -8.921875 8.765625 -8.921875 C 7.785156 -8.921875 7.078125 -8.695312 6.640625 -8.25 C 6.203125 -7.8125 5.984375 -7.175781 5.984375 -6.34375 L 5.984375 0 L 1.53125 0 L 1.53125 -12.890625 L 4.84375 -12.890625 L 5.546875 -10.828125 L 5.75 -10.828125 C 6.125 -11.515625 6.640625 -12.066406 7.296875 -12.484375 C 7.960938 -12.898438 8.632812 -13.109375 9.3125 -13.109375 Z M 9.3125 -13.109375"/></g><g id="c"><path d="M 7.765625 0.234375 C 5.609375 0.234375 3.9375 -0.335938 2.75 -1.484375 C 1.570312 -2.628906 0.984375 -4.253906 0.984375 -6.359375 C 0.984375 -8.535156 1.53125 -10.203125 2.625 -11.359375 C 3.726562 -12.523438 5.300781 -13.109375 7.34375 -13.109375 C 9.28125 -13.109375 10.773438 -12.601562 11.828125 -11.59375 C 12.890625 -10.582031 13.421875 -9.125 13.421875 -7.21875 L 13.421875 -5.25 L 5.46875 -5.25 C 5.5 -4.519531 5.757812 -3.953125 6.25 -3.546875 C 6.75 -3.140625 7.429688 -2.9375 8.296875 -2.9375 C 9.078125 -2.9375 9.796875 -3.007812 10.453125 -3.15625 C 11.109375 -3.300781 11.816406 -3.550781 12.578125 -3.90625 L 12.578125 -0.71875 C 11.878906 -0.363281 11.160156 -0.117188 10.421875 0.015625 C 9.679688 0.160156 8.796875 0.234375 7.765625 0.234375 Z M 7.5 -10.09375 C 6.976562 -10.09375 6.539062 -9.925781 6.1875 -9.59375 C 5.832031 -9.257812 5.625 -8.742188 5.5625 -8.046875 L 9.390625 -8.046875 C 9.367188 -8.660156 9.1875 -9.15625 8.84375 -9.53125 C 8.507812 -9.90625 8.0625 -10.09375 7.5 -10.09375 Z M 7.5 -10.09375"/></g><g id="d"><path d="M 5.546875 0.234375 C 4.617188 0.234375 3.8125 -0.0234375 3.125 -0.546875 C 2.445312 -1.078125 1.921875 -1.847656 1.546875 -2.859375 C 1.171875 -3.878906 0.984375 -5.066406 0.984375 -6.421875 C 0.984375 -8.515625 1.398438 -10.148438 2.234375 -11.328125 C 3.078125 -12.515625 4.234375 -13.109375 5.703125 -13.109375 C 6.429688 -13.109375 7.066406 -12.960938 7.609375 -12.671875 C 8.148438 -12.390625 8.644531 -11.910156 9.09375 -11.234375 L 9.1875 -11.234375 C 9.039062 -12.234375 8.96875 -13.238281 8.96875 -14.25 L 8.96875 -17.703125 L 13.453125 -17.703125 L 13.453125 0 L 10.09375 0 L 9.140625 -1.625 L 8.96875 -1.625 C 8.195312 -0.382812 7.054688 0.234375 5.546875 0.234375 Z M 7.359375 -3.28125 C 8.066406 -3.28125 8.566406 -3.503906 8.859375 -3.953125 C 9.160156 -4.398438 9.320312 -5.09375 9.34375 -6.03125 L 9.34375 -6.375 C 9.34375 -7.519531 9.175781 -8.332031 8.84375 -8.8125 C 8.519531 -9.289062 8.007812 -9.53125 7.3125 -9.53125 C 6.726562 -9.53125 6.273438 -9.253906 5.953125 -8.703125 C 5.628906 -8.160156 5.46875 -7.378906 5.46875 -6.359375 C 5.46875 -5.359375 5.628906 -4.59375 5.953125 -4.0625 C 6.285156 -3.539062 6.753906 -3.28125 7.359375 -3.28125 Z M 7.359375 -3.28125"/></g><g id="e"><path d="M 6 0 L 1.5625 0 L 1.5625 -12.890625 L 6 -12.890625 Z M 1.4375 -16.09375 C 1.4375 -16.757812 1.625 -17.253906 2 -17.578125 C 2.375 -17.910156 2.972656 -18.078125 3.796875 -18.078125 C 4.628906 -18.078125 5.234375 -17.910156 5.609375 -17.578125 C 5.984375 -17.242188 6.171875 -16.75 6.171875 -16.09375 C 6.171875 -14.789062 5.378906 -14.140625 3.796875 -14.140625 C 2.222656 -14.140625 1.4375 -14.789062 1.4375 -16.09375 Z M 1.4375 -16.09375"/></g><g id="f"><path d="M 7.40625 0.234375 C 5.300781 0.234375 3.703125 -0.332031 2.609375 -1.46875 C 1.523438 -2.613281 0.984375 -4.25 0.984375 -6.375 C 0.984375 -8.519531 1.566406 -10.175781 2.734375 -11.34375 C 3.910156 -12.519531 5.585938 -13.109375 7.765625 -13.109375 C 9.253906 -13.109375 10.660156 -12.785156 11.984375 -12.140625 L 10.671875 -8.84375 C 10.128906 -9.082031 9.628906 -9.269531 9.171875 -9.40625 C 8.722656 -9.550781 8.253906 -9.625 7.765625 -9.625 C 7.035156 -9.625 6.472656 -9.34375 6.078125 -8.78125 C 5.691406 -8.21875 5.5 -7.425781 5.5 -6.40625 C 5.5 -4.34375 6.257812 -3.3125 7.78125 -3.3125 C 9.082031 -3.3125 10.332031 -3.691406 11.53125 -4.453125 L 11.53125 -0.90625 C 10.382812 -0.144531 9.007812 0.234375 7.40625 0.234375 Z M 7.40625 0.234375"/></g><g id="g"><path d="M 5.84375 -7.25 C 6.382812 -8.101562 6.84375 -8.769531 7.21875 -9.25 L 10.109375 -12.890625 L 15.078125 -12.890625 L 10.609375 -7.40625 L 15.359375 0 L 10.265625 0 L 7.453125 -4.625 L 6 -3.515625 L 6 0 L 1.53125 0 L 1.53125 -17.703125 L 6 -17.703125 L 6 -10.734375 C 6 -9.546875 5.914062 -8.382812 5.75 -7.25 Z M 5.84375 -7.25"/></g><g id="i"><path d="M 17.359375 -8.34375 C 17.359375 -5.539062 16.671875 -3.410156 15.296875 -1.953125 C 13.921875 -0.492188 11.910156 0.234375 9.265625 0.234375 C 6.660156 0.234375 4.660156 -0.492188 3.265625 -1.953125 C 1.878906 -3.421875 1.1875 -5.554688 1.1875 -8.359375 C 1.1875 -11.128906 1.875 -13.242188 3.25 -14.703125 C 4.632812 -16.160156 6.648438 -16.890625 9.296875 -16.890625 C 11.941406 -16.890625 13.945312 -16.164062 15.3125 -14.71875 C 16.675781 -13.269531 17.359375 -11.144531 17.359375 -8.34375 Z M 5.921875 -8.34375 C 5.921875 -5.125 7.035156 -3.515625 9.265625 -3.515625 C 10.410156 -3.515625 11.253906 -3.90625 11.796875 -4.6875 C 12.347656 -5.46875 12.625 -6.6875 12.625 -8.34375 C 12.625 -10 12.34375 -11.222656 11.78125 -12.015625 C 11.226562 -12.804688 10.398438 -13.203125 9.296875 -13.203125 C 7.046875 -13.203125 5.921875 -11.582031 5.921875 -8.34375 Z M 5.921875 -8.34375"/></g><g id="j"><path d="M 13.703125 -12.890625 L 13.703125 -10.734375 L 11.9375 -10.09375 C 12.175781 -9.65625 12.296875 -9.140625 12.296875 -8.546875 C 12.296875 -7.160156 11.804688 -6.082031 10.828125 -5.3125 C 9.859375 -4.550781 8.40625 -4.171875 6.46875 -4.171875 C 5.988281 -4.171875 5.609375 -4.203125 5.328125 -4.265625 C 5.222656 -4.066406 5.171875 -3.878906 5.171875 -3.703125 C 5.171875 -3.484375 5.347656 -3.316406 5.703125 -3.203125 C 6.066406 -3.085938 6.535156 -3.03125 7.109375 -3.03125 L 9.25 -3.03125 C 12.132812 -3.03125 13.578125 -1.8125 13.578125 0.625 C 13.578125 2.195312 12.90625 3.414062 11.5625 4.28125 C 10.226562 5.15625 8.351562 5.59375 5.9375 5.59375 C 4.113281 5.59375 2.707031 5.285156 1.71875 4.671875 C 0.726562 4.066406 0.234375 3.191406 0.234375 2.046875 C 0.234375 0.503906 1.1875 -0.488281 3.09375 -0.9375 C 2.695312 -1.101562 2.351562 -1.367188 2.0625 -1.734375 C 1.769531 -2.109375 1.625 -2.476562 1.625 -2.84375 C 1.625 -3.25 1.734375 -3.601562 1.953125 -3.90625 C 2.171875 -4.21875 2.628906 -4.582031 3.328125 -5 C 2.660156 -5.300781 2.132812 -5.765625 1.75 -6.390625 C 1.375 -7.023438 1.1875 -7.789062 1.1875 -8.6875 C 1.1875 -10.09375 1.660156 -11.179688 2.609375 -11.953125 C 3.566406 -12.722656 4.9375 -13.109375 6.71875 -13.109375 C 6.945312 -13.109375 7.347656 -13.082031 7.921875 -13.03125 C 8.503906 -12.976562 8.929688 -12.929688 9.203125 -12.890625 Z M 3.984375 1.609375 C 3.984375 1.972656 4.179688 2.265625 4.578125 2.484375 C 4.972656 2.710938 5.5 2.828125 6.15625 2.828125 C 7.226562 2.828125 8.085938 2.691406 8.734375 2.421875 C 9.390625 2.148438 9.71875 1.800781 9.71875 1.375 C 9.71875 1.03125 9.519531 0.785156 9.125 0.640625 C 8.726562 0.503906 8.160156 0.4375 7.421875 0.4375 L 5.6875 0.4375 C 5.207031 0.4375 4.800781 0.546875 4.46875 0.765625 C 4.144531 0.992188 3.984375 1.273438 3.984375 1.609375 Z M 5.375 -8.671875 C 5.375 -7.347656 5.832031 -6.6875 6.75 -6.6875 C 7.175781 -6.6875 7.503906 -6.847656 7.734375 -7.171875 C 7.972656 -7.503906 8.09375 -7.992188 8.09375 -8.640625 C 8.09375 -9.972656 7.644531 -10.640625 6.75 -10.640625 C 5.832031 -10.640625 5.375 -9.984375 5.375 -8.671875 Z M 5.375 -8.671875"/></g><g id="k"><path d="M 9.40625 -13.109375 C 10.8125 -13.109375 11.925781 -12.519531 12.75 -11.34375 C 13.570312 -10.175781 13.984375 -8.550781 13.984375 -6.46875 C 13.984375 -4.375 13.566406 -2.734375 12.734375 -1.546875 C 11.898438 -0.359375 10.742188 0.234375 9.265625 0.234375 C 8.785156 0.234375 8.359375 0.179688 7.984375 0.078125 C 7.617188 -0.0234375 7.289062 -0.164062 7 -0.34375 C 6.707031 -0.53125 6.367188 -0.835938 5.984375 -1.265625 L 5.703125 -1.265625 L 5 0 L 1.53125 0 L 1.53125 -17.703125 L 5.984375 -17.703125 L 5.984375 -13.703125 C 5.984375 -13.222656 5.929688 -12.398438 5.828125 -11.234375 L 5.984375 -11.234375 C 6.410156 -11.898438 6.90625 -12.378906 7.46875 -12.671875 C 8.039062 -12.960938 8.6875 -13.109375 9.40625 -13.109375 Z M 7.78125 -9.625 C 7.15625 -9.625 6.695312 -9.40625 6.40625 -8.96875 C 6.125 -8.539062 5.984375 -7.863281 5.984375 -6.9375 L 5.984375 -6.3125 C 5.984375 -5.257812 6.125 -4.503906 6.40625 -4.046875 C 6.695312 -3.585938 7.171875 -3.359375 7.828125 -3.359375 C 8.347656 -3.359375 8.75 -3.625 9.03125 -4.15625 C 9.3125 -4.6875 9.453125 -5.472656 9.453125 -6.515625 C 9.453125 -8.585938 8.894531 -9.625 7.78125 -9.625 Z M 7.78125 -9.625"/></g><g id="l"><path d="M 10.71875 0 L 10.15625 -1.609375 L 9.890625 -1.609375 C 9.523438 -1.015625 9.007812 -0.554688 8.34375 -0.234375 C 7.675781 0.078125 6.894531 0.234375 6 0.234375 C 4.582031 0.234375 3.476562 -0.175781 2.6875 -1 C 1.90625 -1.820312 1.515625 -2.988281 1.515625 -4.5 L 1.515625 -12.890625 L 5.953125 -12.890625 L 5.953125 -5.84375 C 5.953125 -5 6.070312 -4.359375 6.3125 -3.921875 C 6.550781 -3.492188 6.945312 -3.28125 7.5 -3.28125 C 8.257812 -3.28125 8.800781 -3.582031 9.125 -4.1875 C 9.457031 -4.789062 9.625 -5.8125 9.625 -7.25 L 9.625 -12.890625 L 14.078125 -12.890625 L 14.078125 0 Z M 10.71875 0"/></g><g id="m"><path d="M 11.234375 0 L 0.5625 0 L 0.5625 -2.53125 L 5.890625 -9.484375 L 0.859375 -9.484375 L 0.859375 -12.890625 L 10.984375 -12.890625 L 10.984375 -10.140625 L 5.875 -3.40625 L 11.234375 -3.40625 Z M 11.234375 0"/></g></defs><g fill="#004AAD" fill-opacity=".431"><use x=".884" y="47.148" xmlns:xlink="http://www.w3.org/1999/xlink" xlink:href="#a" xlink:type="simple" xlink:actuate="onLoad" xlink:show="embed"/></g><g fill="#004AAD" fill-opacity=".431"><use x="13.443" y="47.148" xmlns:xlink="http://www.w3.org/1999/xlink" xlink:href="#b" xlink:type="simple" xlink:actuate="onLoad" xlink:show="embed"/></g><g fill="#004AAD" fill-opacity=".431"><use x="24.376" y="47.148" xmlns:xlink="http://www.w3.org/1999/xlink" xlink:href="#c" xlink:type="simple" xlink:actuate="onLoad" xlink:show="embed"/></g><g fill="#004AAD" fill-opacity=".431"><use x="38.778" y="47.148" xmlns:xlink="http://www.w3.org/1999/xlink" xlink:href="#d" xlink:type="simple" xlink:actuate="onLoad" xlink:show="embed"/></g><g fill="#004AAD" fill-opacity=".431"><use x="53.76" y="47.148" xmlns:xlink="http://www.w3.org/1999/xlink" xlink:href="#b" xlink:type="simple" xlink:actuate="onLoad" xlink:show="embed"/></g><g fill="#004AAD" fill-opacity=".431"><use x="64.693" y="47.148" xmlns:xlink="http://www.w3.org/1999/xlink" xlink:href="#e" xlink:type="simple" xlink:actuate="onLoad" xlink:show="embed"/></g><g fill="#004AAD" fill-opacity=".431"><use x="72.27" y="47.148" xmlns:xlink="http://www.w3.org/1999/xlink" xlink:href="#f" xlink:type="simple" xlink:actuate="onLoad" xlink:show="embed"/></g><g fill="#004AAD" fill-opacity=".431"><use x="84.829" y="47.148" xmlns:xlink="http://www.w3.org/1999/xlink" xlink:href="#g" xlink:type="simple" xlink:actuate="onLoad" xlink:show="embed"/></g><g fill="#004AAD" fill-opacity=".431"><use x="100.187" y="47.148" xmlns:xlink="http://www.w3.org/1999/xlink" xlink:href="#h" xlink:type="simple" xlink:actuate="onLoad" xlink:show="embed"/></g><g fill="#004AAD" fill-opacity=".431"><use x="106.239" y="47.148" xmlns:xlink="http://www.w3.org/1999/xlink" xlink:href="#i" xlink:type="simple" xlink:actuate="onLoad" xlink:show="embed"/></g><g fill="#004AAD" fill-opacity=".431"><use x="124.805" y="47.148" xmlns:xlink="http://www.w3.org/1999/xlink" xlink:href="#j" xlink:type="simple" xlink:actuate="onLoad" xlink:show="embed"/></g><g fill="#004AAD" fill-opacity=".431"><use x="138.923" y="47.148" xmlns:xlink="http://www.w3.org/1999/xlink" xlink:href="#k" xlink:type="simple" xlink:actuate="onLoad" xlink:show="embed"/></g><g fill="#004AAD" fill-opacity=".431"><use x="153.906" y="47.148" xmlns:xlink="http://www.w3.org/1999/xlink" xlink:href="#l" xlink:type="simple" xlink:actuate="onLoad" xlink:show="embed"/></g><g fill="#004AAD" fill-opacity=".431"><use x="169.514" y="47.148" xmlns:xlink="http://www.w3.org/1999/xlink" xlink:href="#m" xlink:type="simple" xlink:actuate="onLoad" xlink:show="embed"/></g><g fill="#004AAD" fill-opacity=".431"><use x="181.323" y="47.148" xmlns:xlink="http://www.w3.org/1999/xlink" xlink:href="#l" xlink:type="simple" xlink:actuate="onLoad" xlink:show="embed"/></g><g fill="#004AAD" fill-opacity=".431"><use x="196.931" y="47.148" xmlns:xlink="http://www.w3.org/1999/xlink" xlink:href="#b" xlink:type="simple" xlink:actuate="onLoad" xlink:show="embed"/></g><g fill="#004AAD" fill-opacity=".431"><use x="207.863" y="47.148" xmlns:xlink="http://www.w3.org/1999/xlink" xlink:href="#l" xlink:type="simple" xlink:actuate="onLoad" xlink:show="embed"/></g><g fill="#004AAD"><use x="-.723" y="45.541" xmlns:xlink="http://www.w3.org/1999/xlink" xlink:href="#a" xlink:type="simple" xlink:actuate="onLoad" xlink:show="embed"/></g><g fill="#004AAD"><use x="11.836" y="45.541" xmlns:xlink="http://www.w3.org/1999/xlink" xlink:href="#b" xlink:type="simple" xlink:actuate="onLoad" xlink:show="embed"/></g><g fill="#004AAD"><use x="22.769" y="45.541" xmlns:xlink="http://www.w3.org/1999/xlink" xlink:href="#c" xlink:type="simple" xlink:actuate="onLoad" xlink:show="embed"/></g><g fill="#004AAD"><use x="37.171" y="45.541" xmlns:xlink="http://www.w3.org/1999/xlink" xlink:href="#d" xlink:type="simple" xlink:actuate="onLoad" xlink:show="embed"/></g><g fill="#004AAD"><use x="52.154" y="45.541" xmlns:xlink="http://www.w3.org/1999/xlink" xlink:href="#b" xlink:type="simple" xlink:actuate="onLoad" xlink:show="embed"/></g><g fill="#004AAD"><use x="63.086" y="45.541" xmlns:xlink="http://www.w3.org/1999/xlink" xlink:href="#e" xlink:type="simple" xlink:actuate="onLoad" xlink:show="embed"/></g><g fill="#004AAD"><use x="70.663" y="45.541" xmlns:xlink="http://www.w3.org/1999/xlink" xlink:href="#f" xlink:type="simple" xlink:actuate="onLoad" xlink:show="embed"/></g><g fill="#004AAD"><use x="83.222" y="45.541" xmlns:xlink="http://www.w3.org/1999/xlink" xlink:href="#g" xlink:type="simple" xlink:actuate="onLoad" xlink:show="embed"/></g><g fill="#004AAD"><use x="98.58" y="45.541" xmlns:xlink="http://www.w3.org/1999/xlink" xlink:href="#h" xlink:type="simple" xlink:actuate="onLoad" xlink:show="embed"/></g><g fill="#004AAD"><use x="104.632" y="45.541" xmlns:xlink="http://www.w3.org/1999/xlink" xlink:href="#i" xlink:type="simple" xlink:actuate="onLoad" xlink:show="embed"/></g><g fill="#004AAD"><use x="123.198" y="45.541" xmlns:xlink="http://www.w3.org/1999/xlink" xlink:href="#j" xlink:type="simple" xlink:actuate="onLoad" xlink:show="embed"/></g><g fill="#004AAD"><use x="137.316" y="45.541" xmlns:xlink="http://www.w3.org/1999/xlink" xlink:href="#k" xlink:type="simple" xlink:actuate="onLoad" xlink:show="embed"/></g><g fill="#004AAD"><use x="152.299" y="45.541" xmlns:xlink="http://www.w3.org/1999/xlink" xlink:href="#l" xlink:type="simple" xlink:actuate="onLoad" xlink:show="embed"/></g><g fill="#004AAD"><use x="167.907" y="45.541" xmlns:xlink="http://www.w3.org/1999/xlink" xlink:href="#m" xlink:type="simple" xlink:actuate="onLoad" xlink:show="embed"/></g><g fill="#004AAD"><use x="179.716" y="45.541" xmlns:xlink="http://www.w3.org/1999/xlink" xlink:href="#l" xlink:type="simple" xlink:actuate="onLoad" xlink:show="embed"/></g><g fill="#004AAD"><use x="195.324" y="45.541" xmlns:xlink="http://www.w3.org/1999/xlink" xlink:href="#b" xlink:type="simple" xlink:actuate="onLoad" xlink:show="embed"/></g><g fill="#004AAD"><use x="206.256" y="45.541" xmlns:xlink="http://www.w3.org/1999/xlink" xlink:href="#l" xlink:type="simple" xlink:actuate="onLoad" xlink:show="embed"/></g></svg>